<?xml version="1.0" standalone="no"?>
<!DOCTYPE svg PUBLIC "-//W3C//DTD SVG 20010904//EN"
 "http://www.w3.org/TR/2001/REC-SVG-20010904/DTD/svg10.dtd">
<svg version="1.0" xmlns="http://www.w3.org/2000/svg"
 width="1074.000000pt" height="1074.000000pt" viewBox="0 0 1074.000000 1074.000000"
 preserveAspectRatio="xMidYMid meet">
<metadata>
Created by potrace 1.14, written by Peter Selinger 2001-2017
</metadata>
<g transform="translate(0.000000,1074.000000) scale(0.100000,-0.100000)"
fill="#000000" stroke="none">
<path d="M49 10102 c-15 -15 -32 -42 -38 -61 -12 -38 -11 -1655 2 -1701 7 -26
14 -57 23 -99 3 -13 9 -32 15 -43 5 -10 6 -18 2 -18 -4 0 -3 -4 2 -8 6 -4 21
-29 35 -56 21 -42 167 -206 182 -206 6 0 135 -84 155 -100 7 -6 15 -10 18 -10
3 0 56 -24 118 -54 124 -60 269 -129 277 -131 18 -6 68 -29 148 -68 51 -26 95
-46 97 -46 3 0 58 -25 122 -56 64 -30 121 -55 127 -55 7 0 18 -6 25 -12 6 -7
15 -13 19 -14 4 0 39 -15 77 -33 125 -59 180 -85 185 -86 3 -1 39 -17 80 -37
150 -71 189 -88 198 -88 5 0 15 -7 22 -15 6 -8 15 -14 18 -13 9 2 41 -12 121
-51 36 -17 70 -31 78 -31 7 0 13 -4 13 -10 0 -5 5 -10 10 -10 6 0 47 -17 93
-39 45 -21 105 -48 132 -61 28 -13 101 -47 163 -76 63 -30 115 -54 117 -54 2
0 41 -17 87 -39 174 -81 245 -114 298 -138 61 -28 174 -80 265 -123 33 -15 85
-39 115 -53 62 -28 178 -82 388 -180 78 -37 154 -70 167 -73 14 -3 25 -10 25
-14 0 -5 10 -12 23 -15 12 -4 54 -22 92 -40 39 -18 77 -35 85 -37 8 -2 17 -5
20 -8 5 -6 159 -78 390 -183 30 -13 87 -40 125 -58 39 -18 72 -34 75 -34 3 0
40 -18 83 -38 42 -21 103 -49 135 -63 31 -15 89 -41 127 -59 71 -33 172 -80
280 -130 33 -15 97 -45 143 -66 45 -21 84 -39 86 -39 2 0 66 -29 141 -65 75
-36 138 -65 139 -65 2 0 53 -23 112 -51 60 -28 127 -59 149 -69 22 -10 89 -41
149 -69 59 -28 110 -51 111 -51 2 0 56 -25 121 -56 66 -31 137 -64 159 -74
143 -66 196 -89 198 -87 2 1 15 -6 30 -16 15 -10 31 -16 36 -13 9 6 10 1356 1
1356 -3 0 -5 19 -5 43 1 23 -3 65 -7 92 -5 28 -10 61 -12 75 -10 60 -26 128
-41 170 -20 58 -86 201 -102 220 -7 8 -32 42 -56 75 -58 77 -141 161 -231 233
-39 31 -73 60 -74 65 -2 4 -9 7 -17 7 -7 0 -19 7 -26 16 -7 9 -22 20 -34 25
-26 12 -54 30 -79 52 -11 9 -23 17 -27 17 -4 0 -43 21 -86 46 -68 41 -363 188
-583 291 -79 37 -93 43 -125 61 -11 5 -47 23 -80 38 -33 15 -103 49 -157 75
-53 26 -107 50 -120 54 -12 4 -30 13 -38 20 -8 8 -18 14 -22 14 -7 1 -84 37
-293 136 -49 23 -139 66 -200 95 -60 28 -146 69 -190 90 -44 21 -125 59 -180
85 -55 26 -125 60 -156 75 -32 16 -60 26 -63 23 -3 -4 -6 -1 -6 5 0 7 -5 12
-11 12 -5 0 -63 25 -127 56 -222 108 -297 142 -319 149 -13 3 -23 11 -23 16 0
5 -6 9 -13 9 -8 0 -52 18 -98 41 -46 23 -122 59 -169 81 -47 22 -114 54 -150
70 -36 17 -104 50 -152 74 -49 24 -88 41 -88 38 0 -3 -15 5 -32 18 -18 13 -35
22 -38 22 -3 -1 -43 17 -90 39 -47 23 -87 41 -90 42 -3 0 -39 17 -80 37 -41
19 -120 57 -175 83 -55 26 -129 61 -165 78 -36 17 -67 32 -70 32 -6 2 -186 88
-262 125 -31 16 -59 26 -62 22 -3 -3 -6 -1 -6 5 0 5 -18 16 -40 23 -22 7 -40
17 -40 22 0 4 -3 7 -7 6 -10 -2 -50 17 -418 192 -44 21 -120 57 -170 80 -100
47 -210 99 -423 201 -79 38 -145 69 -148 69 -2 0 -55 25 -117 55 -61 31 -113
55 -115 55 -1 0 -15 6 -30 14 -52 27 -151 56 -189 55 -28 0 -45 -8 -64 -27z"/>
<path d="M10558 10119 c-10 -5 -18 -7 -18 -4 0 3 -13 -1 -29 -9 -16 -9 -31
-12 -35 -9 -3 4 -6 1 -6 -5 0 -7 -5 -12 -11 -12 -12 0 -68 -25 -211 -95 -59
-29 -110 -50 -113 -47 -3 3 -5 0 -5 -6 0 -7 -5 -12 -11 -12 -6 0 -57 -22 -113
-50 -56 -27 -108 -50 -114 -50 -7 0 -12 -4 -12 -10 0 -5 -7 -10 -15 -10 -8 0
-41 -13 -72 -29 -32 -17 -107 -53 -168 -81 -60 -29 -139 -66 -175 -83 -36 -17
-67 -32 -70 -33 -7 -1 -234 -109 -283 -134 -22 -11 -45 -20 -53 -20 -8 0 -14
-4 -14 -9 0 -5 -10 -12 -22 -16 -13 -4 -25 -8 -28 -9 -3 -1 -50 -24 -105 -50
-55 -27 -127 -61 -160 -76 -67 -31 -225 -106 -355 -168 -47 -22 -139 -65 -205
-96 -66 -31 -137 -65 -158 -76 -22 -11 -43 -20 -49 -20 -5 0 -16 -7 -25 -15
-8 -8 -19 -13 -24 -10 -5 4 -9 1 -9 -4 0 -6 -3 -10 -7 -9 -8 2 -34 -10 -263
-120 -172 -82 -299 -142 -400 -189 -52 -24 -120 -57 -151 -73 -31 -16 -59 -27
-63 -23 -3 3 -6 1 -6 -5 0 -7 -4 -12 -9 -12 -9 0 -87 -36 -316 -145 -55 -26
-156 -74 -225 -107 -69 -32 -141 -68 -161 -78 -20 -11 -39 -17 -43 -13 -3 3
-6 1 -6 -5 0 -7 -4 -12 -9 -12 -5 0 -74 -31 -153 -69 -80 -38 -154 -72 -166
-75 -12 -4 -22 -12 -22 -17 0 -5 -6 -9 -14 -9 -18 0 -166 -70 -166 -79 0 -5
135 -74 150 -76 3 0 89 -42 192 -93 103 -51 192 -92 198 -92 5 0 10 -3 10 -8
0 -4 17 -15 38 -25 20 -9 64 -33 97 -52 33 -20 67 -39 75 -42 8 -4 20 -11 25
-15 6 -5 46 -32 90 -61 67 -43 154 -108 233 -172 34 -28 168 -164 191 -195 14
-19 29 -37 32 -40 18 -14 115 -174 143 -235 46 -99 102 -274 97 -303 -3 -17
26 -10 91 24 27 13 49 24 50 23 2 0 52 22 111 50 60 28 110 51 112 51 1 0 56
25 121 56 173 81 210 98 299 139 44 20 92 43 106 50 14 8 29 12 33 8 3 -3 6
-1 6 5 0 7 4 12 9 12 5 0 58 23 118 51 59 28 124 58 143 67 19 8 82 37 140 65
90 42 138 64 160 72 53 20 70 29 70 36 0 5 3 8 8 7 9 -2 47 14 121 51 33 16
62 27 65 23 3 -3 6 0 6 6 0 7 3 11 8 10 4 -1 43 15 87 36 137 66 183 86 194
86 6 0 11 5 11 10 0 6 6 10 13 10 8 0 27 6 43 14 56 28 299 142 306 145 4 1
54 23 110 50 233 110 321 149 332 149 5 0 12 4 15 9 3 4 42 26 86 47 44 22 82
43 83 48 2 4 8 8 14 8 8 0 65 36 117 75 8 5 46 42 86 82 86 87 134 174 159
293 3 14 9 36 13 50 11 41 14 1639 2 1690 -13 63 -55 100 -112 100 -23 0 -50
-5 -59 -11z"/>
<path d="M3697 5972 c-5 -7 -2 -1377 3 -1377 1 0 3 -18 5 -40 11 -171 72 -385
142 -497 13 -21 23 -42 23 -47 0 -5 3 -11 8 -13 4 -1 24 -25 45 -53 70 -92
154 -174 287 -278 22 -18 224 -151 230 -153 17 -3 60 -29 60 -36 0 -4 7 -8 16
-8 9 0 28 -8 42 -19 26 -17 168 -88 507 -251 83 -40 182 -87 220 -105 39 -18
124 -58 190 -90 320 -153 367 -175 375 -175 6 0 10 -4 10 -10 0 -5 3 -9 8 -8
10 2 32 -8 207 -92 142 -68 191 -91 370 -175 41 -19 80 -35 85 -35 6 0 10 -4
10 -10 0 -5 9 -10 20 -10 11 0 20 -4 20 -10 0 -5 6 -10 14 -10 7 0 49 -18 92
-40 43 -22 84 -40 90 -40 6 0 17 -7 24 -15 7 -9 15 -13 17 -11 3 2 35 -10 71
-29 63 -31 154 -75 347 -165 93 -43 241 -114 444 -211 79 -38 145 -69 148 -69
2 0 59 -27 126 -59 164 -79 256 -121 266 -121 5 0 11 -5 13 -11 2 -5 10 -11
18 -13 8 -1 47 -18 85 -36 39 -19 72 -34 75 -35 3 0 16 -7 30 -15 14 -8 27
-15 30 -15 3 -1 35 -15 71 -32 192 -91 249 -118 302 -144 31 -15 57 -26 57
-23 0 3 7 -2 16 -10 8 -9 23 -16 31 -16 9 0 24 -7 33 -15 10 -9 26 -17 36 -19
11 -2 46 -18 79 -34 33 -16 105 -51 160 -77 55 -25 121 -57 146 -71 25 -13 49
-21 53 -17 3 3 6 1 6 -5 0 -7 4 -12 9 -12 9 0 144 -62 301 -138 30 -15 57 -27
60 -28 3 0 48 -21 100 -46 52 -26 136 -65 185 -88 50 -23 116 -55 148 -71 32
-16 64 -29 72 -29 8 0 15 -4 15 -8 0 -7 52 -34 90 -47 3 0 23 -9 45 -19 71
-31 130 -41 173 -28 31 10 43 20 58 54 18 41 19 77 19 848 0 730 -3 852 -19
929 -44 201 -193 372 -431 491 -28 14 -53 29 -56 33 -3 5 -10 9 -15 9 -5 0
-61 25 -124 55 -63 31 -121 56 -127 56 -7 0 -13 4 -13 9 0 4 -3 7 -7 6 -5 -1
-53 20 -108 46 -138 67 -169 80 -177 78 -5 -1 -8 3 -8 8 0 6 -5 10 -10 10 -6
0 -46 16 -88 36 -42 20 -102 48 -132 62 -30 14 -57 27 -60 27 -3 1 -27 12 -55
25 -27 13 -52 25 -55 25 -3 1 -39 18 -80 38 -41 20 -80 37 -86 37 -6 0 -17 7
-24 15 -7 9 -15 13 -18 10 -3 -2 -21 4 -41 15 -35 18 -211 102 -221 105 -12 4
-61 26 -160 73 -58 27 -131 61 -162 76 -32 14 -84 38 -115 52 -32 15 -109 51
-172 80 -62 30 -115 54 -117 54 -3 0 -32 13 -249 116 -44 21 -82 38 -85 39 -3
1 -25 11 -50 22 -25 12 -92 44 -150 71 -58 27 -116 52 -128 56 -12 4 -22 11
-22 15 0 4 -6 8 -13 8 -7 0 -51 18 -97 40 -47 23 -88 41 -92 42 -4 1 -39 17
-78 36 -38 19 -74 35 -80 35 -5 0 -10 4 -10 8 0 5 -6 9 -13 9 -7 0 -49 17 -92
39 -44 21 -82 39 -85 39 -3 1 -34 15 -70 32 -237 112 -309 146 -320 148 -3 0
-48 21 -100 47 -52 25 -113 53 -135 63 -22 10 -71 32 -110 50 -38 18 -95 44
-125 58 -63 28 -174 80 -275 128 -38 18 -72 34 -75 34 -3 1 -30 13 -60 27 -30
14 -91 42 -135 63 -44 20 -98 45 -120 55 -22 10 -80 37 -130 60 -109 51 -228
106 -275 127 -19 9 -42 20 -50 24 -8 5 -26 14 -40 19 -27 11 -70 31 -170 78
-36 17 -96 45 -135 62 -113 52 -165 76 -250 115 -76 36 -122 57 -260 120 -33
15 -96 44 -140 65 -104 50 -133 61 -138 52z"/>
<path d="M3408 4307 c-16 -6 -28 -14 -28 -19 0 -4 -9 -8 -20 -8 -11 0 -20 -4
-20 -10 0 -5 -3 -9 -7 -8 -10 2 -73 -26 -263 -115 -25 -11 -47 -22 -50 -22 -5
-2 -163 -76 -214 -101 -16 -8 -35 -14 -41 -14 -7 0 -18 -7 -25 -15 -7 -8 -21
-15 -31 -15 -9 0 -25 -7 -33 -16 -9 -8 -16 -13 -16 -10 0 3 -17 -3 -37 -14
-21 -11 -43 -20 -50 -20 -7 0 -13 -5 -13 -11 0 -6 -6 -9 -13 -6 -7 3 -24 -4
-38 -14 -13 -10 -27 -19 -32 -19 -4 0 -44 -17 -90 -39 -45 -21 -104 -48 -132
-61 -74 -34 -182 -84 -245 -113 -30 -14 -91 -42 -135 -62 -44 -21 -111 -52
-150 -70 -38 -18 -97 -45 -130 -60 -141 -64 -191 -87 -205 -96 -8 -5 -22 -12
-30 -15 -19 -7 -67 -29 -215 -99 -66 -31 -124 -58 -130 -59 -5 -2 -53 -23
-105 -48 -52 -25 -120 -57 -150 -71 -30 -14 -100 -46 -155 -73 -55 -26 -103
-46 -107 -46 -5 1 -8 -2 -8 -8 0 -5 -6 -10 -12 -10 -13 0 -164 -88 -194 -112
-87 -72 -232 -238 -208 -238 4 0 2 -6 -4 -12 -11 -14 -41 -99 -48 -134 -19
-100 -22 -247 -23 -929 -1 -532 3 -793 10 -820 6 -22 22 -52 36 -67 22 -23 31
-26 81 -23 64 3 104 18 277 100 66 32 156 74 200 95 44 20 114 54 157 74 42
20 81 36 87 36 6 0 11 5 11 11 0 5 5 7 10 4 6 -3 10 -1 10 4 0 6 7 11 15 11
14 0 53 18 65 30 3 3 10 6 16 7 7 1 63 27 125 56 283 135 331 157 340 157 5 0
9 5 9 10 0 6 6 10 14 10 8 0 74 29 147 64 74 35 149 69 166 77 18 8 33 17 33
21 0 5 3 7 8 6 11 -2 10 -2 367 167 33 16 63 28 68 27 4 -1 7 3 7 9 0 5 5 7
10 4 6 -3 10 -1 10 4 0 6 5 11 12 11 6 0 45 17 87 37 42 20 78 37 81 38 3 1
41 19 85 40 44 22 83 38 88 37 4 -1 7 2 7 8 0 5 5 10 10 10 6 0 43 15 83 34
106 50 300 142 397 189 47 23 87 42 90 42 3 1 41 18 85 39 44 21 123 59 175
84 52 25 98 46 101 46 12 2 84 41 87 49 2 4 10 7 18 7 7 0 73 29 146 64 335
160 383 183 401 184 4 1 15 8 24 17 8 9 28 19 44 22 16 3 34 12 40 19 6 8 16
14 21 14 5 0 48 19 96 42 48 23 89 43 92 44 3 1 15 5 28 9 12 4 22 12 22 17 0
5 4 7 9 3 5 -3 17 2 25 11 9 8 16 13 16 9 0 -3 17 3 38 14 20 11 87 43 147 71
209 97 218 104 168 116 -16 4 -30 10 -33 14 -7 10 -103 54 -112 52 -5 -1 -8 2
-8 8 0 6 -3 9 -7 8 -5 -1 -88 37 -187 85 -98 48 -182 87 -187 87 -5 0 -9 4 -9
9 0 5 -9 13 -21 16 -45 14 -343 197 -377 232 -7 7 -17 13 -20 13 -4 0 -18 10
-32 23 -14 12 -45 38 -70 58 -80 65 -185 174 -244 253 -53 70 -86 122 -86 133
0 6 -4 13 -8 15 -21 9 -96 191 -127 308 -12 46 -26 85 -31 86 -5 1 -21 -3 -36
-9z"/>
</g>
</svg>
